<svg id="Chief_of_Staff_-Default" data-name="Chief of Staff -Default" xmlns="http://www.w3.org/2000/svg" width="80" height="80" viewBox="0 0 80 80">
  <path id="Path_133069" data-name="Path 133069" d="M23.654,54.243,20.8,53.428l-1.355-2.121A6.272,6.272,0,0,0,22.829,46.2l.382-5.355h0l.023-.309c.015-.206.021-.411.02-.618a8,8,0,0,0-1.605-4.746,7.65,7.65,0,0,0-.528-.63A7.987,7.987,0,0,0,15.294,32h-.582q-.124,0-.247,0l-.1,0-.131.006a7.912,7.912,0,0,0-6.667,4.432c-.014.028-.026.056-.037.085a7.985,7.985,0,0,0-.759,4l.4,5.665a6.269,6.269,0,0,0,3.385,5.112L9.2,53.43l-2.855.815A8.782,8.782,0,0,0,0,62.656V70.75A1.249,1.249,0,0,0,1.25,72h27.5A1.249,1.249,0,0,0,30,70.75V62.656a8.785,8.785,0,0,0-6.346-8.412Zm-4.083,5.291-2.334-1.4,1.867-1.4Zm-6.809-1.4-2.334,1.4.466-2.8ZM16.92,52l1.4,2.2L15,56.687,11.678,54.2l1.4-2.2ZM15.29,34.5a5.4,5.4,0,0,1,3.59,1.344,5.562,5.562,0,0,1,.409.4l.094.1.02.022c.024.026.046.054.069.08l.025.03.064.078.022.027c.021.026.043.054.063.081l.021.029c.021.029.042.056.063.085l.016.023c.022.031.044.062.065.094l.013.019c.024.035.046.07.069.1l0,.008a5.194,5.194,0,0,1,.274.479.067.067,0,0,1,.006.014l.053.107c0,.006.006.014.01.02.016.034.031.068.046.1l.011.026c.015.033.029.066.042.1l.01.025c.014.034.028.068.04.1l.009.024c.014.036.028.072.04.11,0,.006,0,.011.006.016.013.037.026.075.038.112l.006.017c.014.043.027.085.04.129l0,.015c.011.036.021.074.031.111.005.017.009.035.014.054s.013.046.017.07.011.047.016.07.009.037.012.057l.015.07.011.059c0,.025.01.051.014.076l.007.045c.005.029.01.058.014.086,0,.011,0,.023,0,.035,0,.033.01.066.014.1,0,0,0,.009,0,.012a5.652,5.652,0,0,1,.042.619,8.693,8.693,0,0,1-8.45-1.551l-1.97-1.641a5.593,5.593,0,0,1,.377-.451,5.492,5.492,0,0,1,1.56-1.173l.054-.026.067-.033a5.428,5.428,0,0,1,1.66-.471l.02,0,.13-.014.035,0,.117-.009.044,0L14.5,34.5l.051,0h.74ZM9.26,40.352A5.53,5.53,0,0,1,9.313,39.1l1.39,1.159a11.163,11.163,0,0,0,9.88,2.285l-.248,3.479A3.764,3.764,0,0,1,16.594,49.5H13.405a3.765,3.765,0,0,1-3.741-3.482ZM27.5,69.5H2.5V62.656a6.275,6.275,0,0,1,4.532-6.009l1.41-.4-.925,5.549a1.249,1.249,0,0,0,.53,1.237,1.228,1.228,0,0,0,.7.219,1.246,1.246,0,0,0,.644-.179L15,59.707l5.606,3.364a1.25,1.25,0,0,0,1.876-1.276l-.925-5.549,1.41.4A6.273,6.273,0,0,1,27.5,62.656Z" transform="translate(0 8)" fill="#9aafb5"/>
  <path id="Path_133070" data-name="Path 133070" d="M63.654,54.243,60.8,53.428l-1.355-2.121A6.268,6.268,0,0,0,62.828,46.2l.382-5.352v0l.023-.309c.01-.138.016-.275.019-.411,0-.069,0-.138,0-.2v0A7.958,7.958,0,0,0,55.292,32h-.584q-.124,0-.248,0l-.1,0-.127.006a7.915,7.915,0,0,0-6.67,4.433c-.014.029-.026.059-.038.088a7.969,7.969,0,0,0-.757,3.995l.4,5.665a6.267,6.267,0,0,0,3.385,5.111L49.2,53.428l-2.855.815A8.785,8.785,0,0,0,40,62.656v8.094A1.249,1.249,0,0,0,41.25,72h27.5A1.249,1.249,0,0,0,70,70.749V62.656A8.785,8.785,0,0,0,63.654,54.243Zm-4.082,5.291-2.334-1.4,1.868-1.4Zm-6.809-1.4-2.334,1.4.466-2.8ZM56.919,52l1.4,2.2L55,56.687,51.678,54.2l1.4-2.2ZM55.29,34.5a5.48,5.48,0,0,1,5.277,4.037.071.071,0,0,0,.005.017c.01.035.019.071.028.106l.011.047c.006.026.012.051.017.077s.009.039.013.059.009.046.014.069.009.045.013.068.006.039.01.057.009.05.013.075l.007.049c0,.029.009.058.013.086l0,.026a5.475,5.475,0,0,1,.041.61A8.687,8.687,0,0,1,52.3,38.333l-1.97-1.641a5.627,5.627,0,0,1,.379-.453,5.394,5.394,0,0,1,3.339-1.7l.02,0,.13-.014.035,0,.118-.009.044,0L54.5,34.5l.051,0c.05,0,.1,0,.153,0Zm-6.031,5.852a5.53,5.53,0,0,1,.052-1.256l1.39,1.159a11.165,11.165,0,0,0,9.881,2.285l-.249,3.479a3.763,3.763,0,0,1-3.74,3.481H53.4a3.764,3.764,0,0,1-3.74-3.482ZM67.5,69.5h-25V62.656a6.275,6.275,0,0,1,4.532-6.009l1.41-.4-.925,5.549a1.249,1.249,0,0,0,.53,1.237,1.228,1.228,0,0,0,.7.219,1.246,1.246,0,0,0,.644-.179L55,59.707l5.606,3.364a1.25,1.25,0,0,0,1.876-1.276l-.925-5.549,1.41.4A6.273,6.273,0,0,1,67.5,62.656Z" transform="translate(10 8.001)" fill="#9aafb5"/>
  <path id="Path_133071" data-name="Path 133071" d="M57.5,20H55V32.5a1.249,1.249,0,0,0,.771,1.155,1.234,1.234,0,0,0,.479.095,1.25,1.25,0,0,0,.884-.366l5-5-1.768-1.767L57.5,29.483Z" transform="translate(13.75 5)" fill="#9aafb5"/>
  <path id="Path_133072" data-name="Path 133072" d="M58.25,15.75v5h2.5v-5A8.761,8.761,0,0,0,52,7H42V9.5H52A6.257,6.257,0,0,1,58.25,15.75Z" transform="translate(10.5 1.75)" fill="#9aafb5"/>
  <path id="Path_133073" data-name="Path 133073" d="M9.177,33.75a1.234,1.234,0,0,0,.479-.095,1.249,1.249,0,0,0,.771-1.155V20h-2.5v9.483L5.06,26.616,3.293,28.384l5,5A1.25,1.25,0,0,0,9.177,33.75Z" transform="translate(0.823 5)" fill="#9aafb5"/>
  <path id="Path_133074" data-name="Path 133074" d="M9.5,15.75A6.257,6.257,0,0,1,15.75,9.5h10V7h-10A8.761,8.761,0,0,0,7,15.75v5H9.5Z" transform="translate(1.75 1.75)" fill="#9aafb5"/>
  <path id="Path_133075" data-name="Path 133075" d="M38.724,41.982l6.9,1.61a1.231,1.231,0,0,0,.285.033,1.25,1.25,0,0,0,1.234-1.456l-1.052-6.311,7.216,3.28,1.035-2.275-9.029-4.1-3.748-5.621a6.259,6.259,0,0,0,4.155-5.888v-15A6.257,6.257,0,0,0,39.474,0h-7.5a6.257,6.257,0,0,0-6.25,6.25V10a1.248,1.248,0,0,0,.758,1.149l8.75,3.75a1.241,1.241,0,0,0,1.241-.149l5-3.75-1.5-2-4.423,3.316-7.327-3.14V6.25a3.755,3.755,0,0,1,3.75-3.75h7.5a3.755,3.755,0,0,1,3.75,3.75v15A3.755,3.755,0,0,1,39.474,25h-7.5a3.755,3.755,0,0,1-3.75-3.75V15h-2.5v6.25a6.262,6.262,0,0,0,4.155,5.889L26.132,32.76l-9.029,4.1,1.035,2.275,7.16-3.254L24,42.769a1.25,1.25,0,0,0,1.229,1.481,1.273,1.273,0,0,0,.343-.047L32.7,42.164,29.484,68.6a1.244,1.244,0,0,0,.356,1.035l5,5a1.249,1.249,0,0,0,1.767,0l5-5a1.244,1.244,0,0,0,.356-1.035ZM38.7,39.41l4.87-3.479.8,4.8ZM32.643,27.5h6.162l3.957,5.936-7.039,5.028-7.039-5.028Zm-4.805,8.4,1.718,1.226,3.333,2.38-6.06,1.731Zm7.886,36.079L32.039,68.3l3.271-26.879.446-.128.376.087L39.409,68.3Z" transform="translate(4.276 0)" fill="#9aafb5"/>
  <path id="Path_133076" data-name="Path 133076" d="M38,40h5v2.5H38Z" transform="translate(9.5 10)" fill="#9aafb5"/>
</svg>
