<svg xmlns="http://www.w3.org/2000/svg" width="80" height="80" viewBox="0 0 80 80">
  <path id="Credentialing_Committee_default" data-name="Credentialing Committee default" d="M48.045,47.742H80V30.937a6.411,6.411,0,0,0-4.6-6.179L67.1,22.266V20.3a9.022,9.022,0,0,0,3.871-7.4V9.033a9.032,9.032,0,1,0-18.065,0V12.9a9.021,9.021,0,0,0,3.871,7.4v1.961L53.328,23.3a9.865,9.865,0,0,1-2.8-2.252l-.416-.484a14.542,14.542,0,0,0-23.868,2.605l-3.015-.9V20.3A9.022,9.022,0,0,0,27.1,12.9V9.033a9.032,9.032,0,1,0-18.065,0V12.9A9.021,9.021,0,0,0,12.9,20.3v1.961L4.6,24.758A6.411,6.411,0,0,0,0,30.937V47.742H31.955a10.411,10.411,0,0,0,1.593,1.593v2.542l-9.773,2.256a8.99,8.99,0,0,0-7,8.8V80H63.226V62.933a8.992,8.992,0,0,0-7-8.8l-9.773-2.254V49.336a10.411,10.411,0,0,0,1.593-1.593Zm2.278-6.452V35.116a3.9,3.9,0,0,1,2.562,3.208,3.814,3.814,0,0,1-2.618,4.031,10.42,10.42,0,0,0,.055-1.065ZM49.585,45.1a6.376,6.376,0,0,0,2.758-11.855,15.177,15.177,0,0,0,5.848-5.112l2.01,6.7H56.774V45.162H49.563c.008-.02.014-.038.022-.058Zm14.931.058H59.355V37.42h5.161ZM74.66,27.23a3.845,3.845,0,0,1,2.759,3.707V45.162H72.258V30.968H69.677V45.162H67.1V34.839H63.67l3-10.006ZM55.484,12.9V9.033a6.452,6.452,0,0,1,12.9,0V12.9a6.452,6.452,0,1,1-12.9,0Zm6.452,9.032a8.978,8.978,0,0,0,2.581-.381v1.481l-2.581,8.6-2.581-8.6V21.555a8.978,8.978,0,0,0,2.581.381ZM39.063,18.065a11.957,11.957,0,0,1,9.085,4.178l.416.484A12.472,12.472,0,0,0,55.9,26.892a12.623,12.623,0,0,1-10.367,5.367H31.189a6.779,6.779,0,0,0-4.093,1.4V30.031A11.981,11.981,0,0,1,39.063,18.065Zm-9.33,24.292a3.814,3.814,0,0,1-2.618-4.031,3.9,3.9,0,0,1,2.562-3.208v6.173a10.464,10.464,0,0,0,.055,1.066ZM11.613,12.9V9.033a6.452,6.452,0,0,1,12.9,0V12.9a6.452,6.452,0,1,1-12.9,0Zm6.452,9.032a8.978,8.978,0,0,0,2.581-.381v1.481l-2.581,8.6-2.581-8.6V21.555a8.978,8.978,0,0,0,2.581.381Zm2.581,23.226H15.484V37.42h5.161ZM2.58,30.937A3.845,3.845,0,0,1,5.339,27.23l7.99-2.4,3,10.006H12.9V45.162H10.322V30.968H7.742V45.162H2.58ZM23.226,45.162V34.839H19.8l3-10.006,2.426.728a14.477,14.477,0,0,0-.709,4.471V38.71h.036A6.321,6.321,0,0,0,30.417,45.1l.021.058Zm9.032-3.871V34.839h13.28a15.558,15.558,0,0,0,2.2-.158v6.609a7.742,7.742,0,0,1-15.484,0ZM45.455,54.3l.388.089-1.453,4.069-2.241-1.68Zm1,23.124h-12.9V72.258h12.9Zm-6.833-7.742L36.518,61,40,58.387,43.481,61l-3.1,8.68ZM35.61,58.454l-1.453-4.069.388-.089,3.3,2.479ZM19.355,62.933a6.424,6.424,0,0,1,5-6.287l7.271-1.678,5.253,14.71H30.968V77.42H28.387V63.226H25.806V77.42H19.355Zm41.29,0V77.42H54.193V63.226H51.613V77.42H49.032V69.678H43.121l5.253-14.708,7.271,1.677A6.424,6.424,0,0,1,60.645,62.933ZM43.871,52.258,40,55.162l-3.871-2.9v-1.4a10.24,10.24,0,0,0,7.742,0Zm0,0" transform="translate(0 0)" fill="#9aafb5"/>
</svg>
