<svg xmlns="http://www.w3.org/2000/svg" width="78.011" height="80" viewBox="0 0 78.011 80">
  <path id="Head_of_Department_Default" data-name="Head of Department Default" d="M46.481,5.616a1.094,1.094,0,0,1,1.094-1.094h2.139a1.094,1.094,0,0,1,0,2.188H47.574A1.094,1.094,0,0,1,46.481,5.616ZM58.643,26.46h1.67a1.094,1.094,0,1,0,0-2.187h-1.67a1.094,1.094,0,1,0,0,2.188Zm0-3.751h1.67a1.094,1.094,0,1,0,0-2.187h-1.67a1.094,1.094,0,1,0,0,2.188Zm0-3.752h1.67a1.094,1.094,0,1,0,0-2.187h-1.67a1.094,1.094,0,1,0,0,2.188Zm0,11.255h1.67a1.094,1.094,0,1,0,0-2.187h-1.67a1.094,1.094,0,1,0,0,2.188Zm0,3.752h1.67a1.094,1.094,0,1,0,0-2.188h-1.67a1.094,1.094,0,1,0,0,2.188ZM63.75,22.709h1.67a1.094,1.094,0,0,0,0-2.187H63.75a1.094,1.094,0,0,0,0,2.188Zm0-3.752h1.67a1.094,1.094,0,1,0,0-2.187H63.75a1.094,1.094,0,0,0,0,2.188Zm0,7.5h1.67a1.094,1.094,0,1,0,0-2.187H63.75a1.094,1.094,0,0,0,0,2.188Zm-16.176-16h2.139a1.094,1.094,0,1,0,0-2.187H47.574a1.094,1.094,0,0,0,0,2.187ZM63.75,15.205h1.67a1.094,1.094,0,1,0,0-2.187H63.75a1.094,1.094,0,0,0,0,2.188Zm0,18.758h1.67a1.094,1.094,0,1,0,0-2.187H63.75a1.094,1.094,0,0,0,0,2.188ZM58.643,11.454h1.67a1.094,1.094,0,1,0,0-2.187h-1.67a1.094,1.094,0,1,0,0,2.187ZM63.75,30.212h1.67a1.094,1.094,0,1,0,0-2.187H63.75a1.094,1.094,0,0,0,0,2.188ZM58.643,15.205h1.67a1.094,1.094,0,1,0,0-2.187h-1.67a1.094,1.094,0,1,0,0,2.188ZM32.1,31.775H30.434a1.094,1.094,0,1,0,0,2.188H32.1a1.094,1.094,0,1,0,0-2.187Zm0-15.006H30.434a1.094,1.094,0,0,0,0,2.188H32.1a1.094,1.094,0,0,0,0-2.187ZM27,9.266H25.327a1.094,1.094,0,0,0,0,2.188H27a1.094,1.094,0,1,0,0-2.187Zm5.1,15.006H30.434a1.094,1.094,0,1,0,0,2.188H32.1a1.094,1.094,0,1,0,0-2.187Zm0,3.752H30.434a1.094,1.094,0,0,0,0,2.188H32.1a1.094,1.094,0,1,0,0-2.187ZM41.033,6.711h2.139a1.094,1.094,0,1,0,0-2.187H41.033a1.094,1.094,0,0,0,0,2.188ZM32.1,13.017H30.434a1.094,1.094,0,0,0,0,2.188H32.1a1.094,1.094,0,0,0,0-2.187ZM63.75,11.454h1.67a1.094,1.094,0,1,0,0-2.187H63.75a1.094,1.094,0,0,0,0,2.187ZM32.1,9.266H30.434a1.094,1.094,0,1,0,0,2.187H32.1a1.094,1.094,0,1,0,0-2.187Zm0,11.255H30.434a1.094,1.094,0,0,0,0,2.188H32.1a1.094,1.094,0,1,0,0-2.187Zm-5.1,7.5H25.327a1.094,1.094,0,0,0,0,2.188H27a1.094,1.094,0,1,0,0-2.187Zm0,3.752H25.327a1.094,1.094,0,0,0,0,2.188H27a1.094,1.094,0,1,0,0-2.187ZM41.033,10.463h2.139a1.094,1.094,0,1,0,0-2.188H41.033a1.094,1.094,0,1,0,0,2.188ZM27,13.017H25.327a1.094,1.094,0,0,0,0,2.188H27a1.094,1.094,0,0,0,0-2.187Zm0,3.752H25.327a1.094,1.094,0,0,0,0,2.188H27a1.094,1.094,0,0,0,0-2.187Zm0,7.5H25.327a1.094,1.094,0,0,0,0,2.188H27a1.094,1.094,0,0,0,0-2.187Zm0-3.751H25.327a1.094,1.094,0,0,0,0,2.188H27a1.094,1.094,0,1,0,0-2.187Zm57.38,54.173v4.212A1.094,1.094,0,0,1,83.283,80H67.993A1.094,1.094,0,0,1,66.9,78.906V74.694a6.6,6.6,0,0,1,5.06-6.406,7.285,7.285,0,0,1-1.185-4.233,4.871,4.871,0,0,1,3.769-4.738V51.835a1.774,1.774,0,0,0-1.772-1.772h-26.3v9.255a4.871,4.871,0,0,1,3.769,4.738,7.232,7.232,0,0,1-1.192,4.231,6.6,6.6,0,0,1,5.068,6.408v4.212A1.094,1.094,0,0,1,53.018,80H37.724a1.094,1.094,0,0,1-1.094-1.094V74.694a6.6,6.6,0,0,1,5.064-6.406,7.285,7.285,0,0,1-1.184-4.232,4.871,4.871,0,0,1,3.769-4.738V50.063H17.975A1.774,1.774,0,0,0,16.2,51.834v7.483a4.871,4.871,0,0,1,3.769,4.738,7.231,7.231,0,0,1-1.192,4.231,6.6,6.6,0,0,1,5.068,6.408v4.212A1.094,1.094,0,0,1,22.754,80H7.46a1.094,1.094,0,0,1-1.094-1.094V74.694a6.6,6.6,0,0,1,5.064-6.406,7.285,7.285,0,0,1-1.184-4.232,4.871,4.871,0,0,1,3.769-4.738V51.835a3.964,3.964,0,0,1,3.96-3.96h26.3V40.961H34.628a1.094,1.094,0,0,1-1.094-1.094V38.49H21.173A1.094,1.094,0,0,1,20.079,37.4V5.834A1.094,1.094,0,0,1,21.173,4.74H35.16V1.094A1.094,1.094,0,0,1,36.254,0H54.488a1.094,1.094,0,0,1,1.094,1.094V4.739H69.574a1.094,1.094,0,0,1,1.094,1.094V37.4a1.094,1.094,0,0,1-1.094,1.094H57.213v1.377a1.094,1.094,0,0,1-1.094,1.094H46.468v6.915h26.3a3.964,3.964,0,0,1,3.96,3.96v7.482A4.871,4.871,0,0,1,80.5,64.055a7.232,7.232,0,0,1-1.192,4.231,6.6,6.6,0,0,1,5.068,6.408ZM55.583,6.927V28.849a8.756,8.756,0,0,1,1.63,5.1V36.3H68.481V6.927ZM37.348,2.188V26.694a8.759,8.759,0,0,1,3.646-1.455c-.035-.041-.072-.081-.107-.123A9.486,9.486,0,0,1,38.982,19a6.391,6.391,0,0,1,12.783,0,9.486,9.486,0,0,1-1.905,6.12c-.035.042-.071.082-.107.123a8.769,8.769,0,0,1,3.642,1.453V2.188Zm8.026,12.605a4.208,4.208,0,0,0-4.2,4.2c0,4.217,2.179,6.138,4.2,6.138s4.2-1.921,4.2-6.138a4.208,4.208,0,0,0-4.2-4.2ZM33.534,36.3V33.945a8.76,8.76,0,0,1,1.625-5.091V6.927H22.267V36.3Zm6.954-.846v3.317h9.771V35.456a1.094,1.094,0,1,1,2.188,0v3.317h2.578V33.945A6.631,6.631,0,0,0,48.4,27.323H42.344a6.629,6.629,0,0,0-6.622,6.622v4.828H38.3V35.456a1.094,1.094,0,1,1,2.188,0ZM17.262,70.3h-4.31a4.4,4.4,0,0,0-4.4,4.4v3.119H21.66V74.694A4.4,4.4,0,0,0,17.262,70.3ZM15.109,61.38a2.678,2.678,0,0,0-2.675,2.675c0,2.784,1.387,4.052,2.675,4.052s2.675-1.268,2.675-4.052a2.678,2.678,0,0,0-2.675-2.675ZM47.526,70.3h-4.31a4.4,4.4,0,0,0-4.4,4.4v3.119H51.924V74.694a4.4,4.4,0,0,0-4.4-4.4ZM45.374,61.38h0A2.678,2.678,0,0,0,42.7,64.055c0,2.784,1.387,4.052,2.675,4.052s2.675-1.268,2.675-4.052a2.678,2.678,0,0,0-2.675-2.675Zm27.589,2.675c0,2.784,1.387,4.052,2.675,4.052s2.675-1.268,2.675-4.052a2.675,2.675,0,1,0-5.351,0Zm9.226,10.639a4.4,4.4,0,0,0-4.4-4.4H73.486a4.4,4.4,0,0,0-4.4,4.4v3.119h13.1Z" transform="translate(-6.366)" fill="#9aafb5"/>
</svg>
