<svg xmlns="http://www.w3.org/2000/svg" width="77.951" height="80" viewBox="0 0 77.951 80">
  <path id="Head_of_Department_-_Second" data-name="Head of Department - Second" d="M50.976,18.405c0,9.918-10.892,9.918-10.892,0a5.446,5.446,0,1,1,10.892,0ZM38.258,35.33a1.125,1.125,0,0,1,2.25,0v4.531H50.553V35.33a1.125,1.125,0,0,1,2.25,0v4.531h3.775V33.778a7.956,7.956,0,0,0-7.932-7.932H42.42a7.957,7.957,0,0,0-7.937,7.932v6.083h3.775ZM15.541,58.708V52.169a1.819,1.819,0,0,1,1.822-1.821H44.405v8.36a6.094,6.094,0,0,1,2.25,0V50.349H73.7a1.819,1.819,0,0,1,1.821,1.821v6.539a6.094,6.094,0,0,1,2.25,0v-6.54A4.073,4.073,0,0,0,73.7,48.1H46.655V42.11H44.4V48.1H17.362a4.074,4.074,0,0,0-4.071,4.071v6.539a6.094,6.094,0,0,1,2.25,0Zm2.75,6.02a3.875,3.875,0,0,0-7.75,0c0,7.058,7.75,7.058,7.75,0Zm-1.662,5.3H12.2A5.663,5.663,0,0,0,6.557,75.67V80H22.276V75.67a5.663,5.663,0,0,0-5.646-5.646Zm25.026-5.3c0,7.058,7.75,7.058,7.75,0a3.875,3.875,0,1,0-7.75,0Zm6.088,5.3H43.317a5.663,5.663,0,0,0-5.646,5.646V80H53.394V75.67a5.667,5.667,0,0,0-5.651-5.646Zm25.026-5.3c0,7.058,7.75,7.058,7.75,0a3.875,3.875,0,1,0-7.75,0Zm6.093,5.3H74.431a5.663,5.663,0,0,0-5.646,5.646V80H84.508V75.67a5.663,5.663,0,0,0-5.646-5.646Zm-46.628-32.7H18.4V4.872H33.91V28.2a10.118,10.118,0,0,0-1.676,5.578Zm-6.721-4.658a1.127,1.127,0,0,0-1.125-1.125H22.672a1.125,1.125,0,1,0,0,2.25h1.717a1.125,1.125,0,0,0,1.125-1.125Zm0-3.857a1.127,1.127,0,0,0-1.125-1.125H22.672a1.125,1.125,0,0,0,0,2.25h1.717a1.125,1.125,0,0,0,1.125-1.125Zm0-3.852a1.125,1.125,0,0,0-1.125-1.125H22.672a1.123,1.123,0,0,0,0,2.245h1.717a1.123,1.123,0,0,0,1.125-1.12Zm0-3.857a1.125,1.125,0,0,0-1.125-1.125H22.672a1.125,1.125,0,0,0,0,2.25h1.717A1.127,1.127,0,0,0,25.513,21.1Zm0-3.857a1.124,1.124,0,0,0-1.125-1.125H22.672a1.125,1.125,0,0,0,0,2.25h1.717A1.127,1.127,0,0,0,25.513,17.244Zm0-3.857a1.125,1.125,0,0,0-1.125-1.125H22.672a1.125,1.125,0,0,0,0,2.25h1.717A1.127,1.127,0,0,0,25.513,13.387Zm0-3.857a1.127,1.127,0,0,0-1.125-1.125H22.672a1.125,1.125,0,0,0,0,2.25h1.717a1.127,1.127,0,0,0,1.125-1.124Zm5.25,23.136a1.127,1.127,0,0,0-1.125-1.125H27.922a1.125,1.125,0,0,0,0,2.25h1.717a1.125,1.125,0,0,0,1.125-1.125Zm0-3.857a1.127,1.127,0,0,0-1.125-1.125H27.922a1.125,1.125,0,0,0,0,2.25h1.717a1.125,1.125,0,0,0,1.125-1.125Zm0-3.852a1.125,1.125,0,0,0-1.125-1.125H27.922a1.123,1.123,0,0,0,0,2.245h1.717a1.123,1.123,0,0,0,1.125-1.12Zm0-3.857a1.125,1.125,0,0,0-1.125-1.125H27.922a1.125,1.125,0,0,0,0,2.25h1.717A1.127,1.127,0,0,0,30.763,21.1Zm0-3.857a1.125,1.125,0,0,0-1.125-1.125H27.922a1.125,1.125,0,0,0,0,2.25h1.717a1.127,1.127,0,0,0,1.125-1.125Zm0-3.857a1.125,1.125,0,0,0-1.125-1.125H27.922a1.125,1.125,0,0,0,0,2.25h1.717a1.127,1.127,0,0,0,1.125-1.125Zm0-3.857a1.127,1.127,0,0,0-1.125-1.125H27.922a1.125,1.125,0,0,0,0,2.25h1.717a1.127,1.127,0,0,0,1.125-1.124Zm8.4,14.6a10.082,10.082,0,0,0-3,1.625V0H54.906V25.759A10.107,10.107,0,0,0,51.9,24.134a11.718,11.718,0,0,0,1.325-5.728,7.7,7.7,0,1,0-15.391,0,11.77,11.77,0,0,0,1.325,5.728ZM46.668,4.649a1.125,1.125,0,0,0,1.125,1.125h2.2a1.125,1.125,0,1,0,0-2.25h-2.2a1.127,1.127,0,0,0-1.125,1.125Zm0,3.857a1.125,1.125,0,0,0,1.125,1.125h2.2a1.125,1.125,0,1,0,0-2.25h-2.2a1.127,1.127,0,0,0-1.125,1.125ZM39.943,4.649a1.125,1.125,0,0,0,1.125,1.125h2.2a1.125,1.125,0,0,0,0-2.25h-2.2a1.127,1.127,0,0,0-1.125,1.125Zm0,3.857a1.125,1.125,0,0,0,1.125,1.125h2.2a1.125,1.125,0,0,0,0-2.25h-2.2a1.127,1.127,0,0,0-1.125,1.125ZM58.826,33.778A10.081,10.081,0,0,0,57.151,28.2V4.872H72.66V37.325H58.826ZM65.548,9.531a1.127,1.127,0,0,0,1.125,1.125h1.716a1.125,1.125,0,1,0,0-2.25H66.672a1.127,1.127,0,0,0-1.124,1.125Zm0,3.857a1.127,1.127,0,0,0,1.125,1.125h1.716a1.125,1.125,0,1,0,0-2.25H66.672a1.125,1.125,0,0,0-1.124,1.124Zm0,3.857a1.127,1.127,0,0,0,1.125,1.125h1.716a1.125,1.125,0,1,0,0-2.25H66.672a1.124,1.124,0,0,0-1.124,1.124Zm0,3.857a1.127,1.127,0,0,0,1.125,1.125h1.716a1.125,1.125,0,1,0,0-2.25H66.672A1.125,1.125,0,0,0,65.548,21.1Zm0,3.857a1.123,1.123,0,0,0,1.125,1.12h1.716a1.123,1.123,0,1,0,0-2.245H66.672a1.125,1.125,0,0,0-1.124,1.124Zm0,3.852a1.125,1.125,0,0,0,1.125,1.125h1.716a1.125,1.125,0,1,0,0-2.25H66.672a1.127,1.127,0,0,0-1.124,1.124Zm0,3.857a1.125,1.125,0,0,0,1.125,1.125h1.716a1.125,1.125,0,1,0,0-2.25H66.672a1.127,1.127,0,0,0-1.124,1.124ZM60.3,9.531a1.127,1.127,0,0,0,1.125,1.125h1.717a1.125,1.125,0,0,0,0-2.25H61.422A1.127,1.127,0,0,0,60.3,9.531Zm0,3.857a1.127,1.127,0,0,0,1.125,1.125h1.717a1.125,1.125,0,0,0,0-2.25H61.422A1.125,1.125,0,0,0,60.3,13.387Zm0,3.857a1.127,1.127,0,0,0,1.125,1.125h1.717a1.125,1.125,0,0,0,0-2.25H61.422A1.125,1.125,0,0,0,60.3,17.244Zm0,3.857a1.127,1.127,0,0,0,1.125,1.125h1.717a1.125,1.125,0,0,0,0-2.25H61.422A1.125,1.125,0,0,0,60.3,21.1Zm0,3.857a1.123,1.123,0,0,0,1.125,1.12h1.717a1.123,1.123,0,0,0,0-2.245H61.422A1.125,1.125,0,0,0,60.3,24.958Zm0,3.852a1.125,1.125,0,0,0,1.125,1.125h1.717a1.125,1.125,0,1,0,0-2.25H61.422A1.127,1.127,0,0,0,60.3,28.81Zm0,3.857a1.125,1.125,0,0,0,1.125,1.125h1.717a1.125,1.125,0,1,0,0-2.25H61.422A1.127,1.127,0,0,0,60.3,32.667Z" transform="translate(-6.557 0)" fill="#fff"/>
</svg>
