<svg id="System_Administrator_-_Default" data-name="System Administrator - Default" xmlns="http://www.w3.org/2000/svg" width="79.538" height="80" viewBox="0 0 79.538 80">
  <path id="Path_133011" data-name="Path 133011" d="M74.313,2H18.368a4.49,4.49,0,0,0-4.485,4.485V31.522a1.25,1.25,0,1,0,2.5,0V6.485A1.986,1.986,0,0,1,18.368,4.5H74.313A1.986,1.986,0,0,1,76.3,6.485V44.9a1.986,1.986,0,0,1-1.985,1.985H35.051a1.25,1.25,0,0,0,0,2.5H74.313A4.49,4.49,0,0,0,78.8,44.9V6.485A4.49,4.49,0,0,0,74.313,2Z" transform="translate(0.74 -2)" fill="#9aafb5"/>
  <path id="Path_133012" data-name="Path 133012" d="M31.2,52.236h-.832l-.041,0a10.121,10.121,0,0,0,3.485-7.648V29.761a1.246,1.246,0,0,0-1.25-1.25H21.541a8.032,8.032,0,0,0-8.025,7.937v8.138A10.121,10.121,0,0,0,17,52.234l-.047,0h-.838C9.57,52.236,2.185,58.528,2.185,67.1v7.023a1.249,1.249,0,0,0,1.25,1.25H29.363a1.25,1.25,0,0,0,0-2.5H4.685V67.1a12.383,12.383,0,0,1,11-12.287l7.1,7.1a1.252,1.252,0,0,0,1.762,0l7.1-7.1a12.383,12.383,0,0,1,11,12.288v5.773H37a1.25,1.25,0,0,0,0,2.5h6.891a1.249,1.249,0,0,0,1.25-1.25V67.1c0-8.6-7.394-14.863-13.938-14.863ZM21.541,31.011h9.775v4.225a3.889,3.889,0,0,1-3.887,3.875H19.5a1.25,1.25,0,0,0,0,2.5h7.925a6.3,6.3,0,0,0,3.887-1.325v4.3a7.664,7.664,0,0,1-7.551,7.645h-.2a7.655,7.655,0,0,1-7.55-7.645v-8.05a5.53,5.53,0,0,1,5.525-5.525Zm2.125,28.25-4.525-4.525h9.05Z" transform="translate(-2.185 4.628)" fill="#9aafb5"/>
  <path id="Path_133013" data-name="Path 133013" d="M29.43,22.239V26.1a2.39,2.39,0,0,0,2,2.363l2.237.387L32.355,30.7a2.377,2.377,0,0,0,.263,3.087l2.725,2.725a2.39,2.39,0,0,0,3.075.262l1.863-1.313.375,2.25A2.41,2.41,0,0,0,43.017,39.7H46.88a2.39,2.39,0,0,0,2.363-2l.388-2.238,1.862,1.313a2.39,2.39,0,0,0,3.075-.262l2.725-2.725a2.392,2.392,0,0,0,.262-3.075l-1.312-1.862,2.238-.387a2.39,2.39,0,0,0,2-2.363V22.239a2.4,2.4,0,0,0-2-2.363L56.242,19.5l1.312-1.862a2.39,2.39,0,0,0-.262-3.075l-2.725-2.725a2.392,2.392,0,0,0-3.088-.263l-1.85,1.313-.388-2.25A2.39,2.39,0,0,0,46.88,8.651H43.017a2.41,2.41,0,0,0-2.362,1.987l-.375,2.25-1.863-1.325a2.392,2.392,0,0,0-3.075.275l-2.725,2.725a2.36,2.36,0,0,0-.263,3.075L33.667,19.5l-2.25.375a2.4,2.4,0,0,0-1.988,2.363Zm2.5.087,4.113-.7a1.245,1.245,0,0,0,.812-1.95l-2.412-3.413,2.6-2.6,3.412,2.412a1.245,1.245,0,0,0,1.95-.812l.7-4.113h3.687l.7,4.113a1.258,1.258,0,0,0,1.963.812l3.4-2.412,2.612,2.6-2.412,3.413a1.243,1.243,0,0,0,.813,1.95l4.112.7v3.688l-4.112.712a1.242,1.242,0,0,0-.813,1.95l2.412,3.4-2.612,2.612-3.4-2.413a1.255,1.255,0,0,0-1.963.813l-.7,4.112H43.1l-.7-4.112a1.243,1.243,0,0,0-1.95-.813l-3.412,2.413-2.6-2.612,2.412-3.4a1.245,1.245,0,0,0-.812-1.95l-4.113-.712Z" transform="translate(4.627 -0.337)" fill="#9aafb5"/>
  <path id="Path_133014" data-name="Path 133014" d="M43.27,29.579a7.094,7.094,0,1,0-7.1-7.088A7.09,7.09,0,0,0,43.27,29.579Zm0-11.687a4.594,4.594,0,1,1-4.6,4.6A4.6,4.6,0,0,1,43.27,17.891Z" transform="translate(6.312 1.348)" fill="#9aafb5"/>
</svg>
